<svg width="12" height="12" viewBox="0 0 12 12" fill="none" xmlns="http://www.w3.org/2000/svg">
<mask id="mask0_18_270" style="mask-type:alpha" maskUnits="userSpaceOnUse" x="0" y="0" width="12" height="12">
<circle cx="6" cy="6" r="6" fill="#D9D9D9"/>
</mask>
<g mask="url(#mask0_18_270)">
<path d="M-6.94702 10.3164H22.7372V17.6848H-6.94702V10.3164Z" fill="#FFCE00"/>
<path d="M-6.94702 -4.4209H22.7372V2.94752H-6.94702V-4.4209Z" fill="black"/>
<path d="M-6.94702 2.94727H22.7372V10.3157H-6.94702V2.94727Z" fill="#DD0000"/>
<path d="M-2.52649 0H14.4359V12.6316H-2.52649V0Z" fill="#012169"/>
<path d="M-0.538707 0L5.92821 4.76316L12.3686 0H14.4359V1.63158L8.07502 6.3421L14.4359 11.0263V12.6316H12.3156L5.95471 7.92105L-0.379685 12.6316H-2.52649V11.0526L3.80791 6.36842L-2.52649 1.68421V0H-0.538707Z" fill="white"/>
<path d="M8.71111 7.39474L14.4359 11.5789V12.6316L7.2534 7.39474H8.71111ZM3.83441 7.92105L3.99344 8.8421L-1.09529 12.6316H-2.52649L3.83441 7.92105ZM14.4359 0V0.0789474L7.83648 5.02632L7.88949 3.86842L13.1107 0H14.4359ZM-2.52649 0L3.80791 4.63158H2.21768L-2.52649 1.10526V0Z" fill="#C8102E"/>
<path d="M3.86092 0V12.6316H8.10152V0H3.86092ZM-2.52649 4.21053V8.42105H14.4359V4.21053H-2.52649Z" fill="white"/>
<path d="M-2.52649 5.07895V7.60526H14.4359V5.07895H-2.52649ZM4.70904 0V12.6316H7.2534V0H4.70904Z" fill="#C8102E"/>
</g>
</svg>
