<svg width="263" height="46" viewBox="0 0 263 46" fill="none" xmlns="http://www.w3.org/2000/svg">
<path fill-rule="evenodd" clip-rule="evenodd" d="M249.367 27.4315L235.734 13.7157L249.367 0L263 13.7158L249.367 27.4315ZM241.934 23.6534L243.087 28.2924C242.111 28.2924 240.952 28.6495 239.473 29.3632C238.04 30.0768 236.702 30.9838 235.461 32.0835V45.2863H229.697V23.6534H232.712L234.618 27.2664C235.653 26.3447 236.864 25.5126 238.254 24.7689C239.643 24.0252 240.87 23.6534 241.934 23.6534ZM229.444 15.5846V19.2574H228.409V13.7684H229.444L231.972 17.4331V13.7684H233.015V19.2574H231.972L229.444 15.5846ZM222.785 13.7684H226.042L226.203 14.5917H223.82V16.0689H225.601L225.77 16.9071H223.82V18.4421H226.449L226.604 19.2574H222.785V13.7684ZM226.151 34.403V36.1874H211.653C211.948 37.7042 212.591 38.8639 213.59 39.6666C214.572 40.4693 216.087 40.8872 218.126 40.8872C219.308 40.8872 220.372 40.7156 221.318 40.3803C222.263 40.0532 223.283 39.5771 224.377 38.9525L226.101 43.1824C224.968 44.0183 223.786 44.6696 222.515 45.1304C221.244 45.5907 219.736 45.8214 218.016 45.8214C213.914 45.8214 210.818 44.8181 208.705 42.8109C206.609 40.8037 205.535 38.0308 205.535 34.492C205.535 32.2025 205.97 30.1953 206.842 28.471C207.715 26.7466 208.963 25.4157 210.589 24.5167C212.215 23.5423 214.136 23.0735 216.352 23.0735C218.51 23.0735 220.328 23.5791 221.805 24.5904C223.283 25.6016 224.377 26.962 225.086 28.6716C225.796 30.3812 226.151 32.292 226.151 34.403ZM219.154 29.0956C218.392 28.3819 217.424 28.0248 216.252 28.0248C215.08 28.0248 214.047 28.3893 213.249 29.1177C212.451 29.8461 211.934 30.9089 211.697 32.3068H220.698C220.402 30.8794 219.916 29.8093 219.154 29.0956ZM216.888 15.5846V19.2574H215.853V13.7684H216.888L219.415 17.4331V13.7684H220.458V19.2574H219.415L216.888 15.5846ZM212.595 17.9658H210.525L210.044 19.2574H209.001L211.127 13.7684H212.01L214.128 19.1928L213.085 19.3712L212.595 17.9658ZM211.544 15.2052L210.83 17.1387H212.275L211.544 15.2052ZM204.275 13.7684H205.31V18.4421H207.717L207.878 19.2574H204.275V13.7684ZM201.307 17.1466C200.97 17.2837 200.601 17.3443 200.199 17.3443H199.603V19.2574H198.563V13.7684H200.272C200.914 13.7684 201.434 13.9124 201.832 14.2003C202.231 14.4882 202.43 14.9308 202.43 15.5281C202.43 15.9321 202.327 16.2627 202.121 16.5371C201.959 16.8116 201.664 17.0148 201.307 17.1466ZM201.092 14.8621C200.869 14.7142 200.598 14.6401 200.24 14.6401H199.603V16.4805H200.256C200.577 16.4805 200.831 16.4066 201.018 16.2586C201.205 16.1106 201.309 15.8886 201.331 15.5926C201.331 15.2537 201.238 15.0491 201.092 14.8621ZM201.988 23.6534V45.2863H198.22L197.244 42.9668C195.914 43.9185 194.495 44.6622 192.988 45.2027C191.514 45.7319 190.166 46 188.994 46C186.234 46 184.363 45.2268 183.234 43.6805C182.141 42.1341 181.594 39.9784 181.594 37.2128V23.6534H187.358V36.9453C187.358 38.2835 187.631 39.3243 188.178 40.068C188.724 40.8116 189.485 41.183 190.461 41.183C191.466 41.183 192.411 40.9528 193.298 40.5041C194.185 40.0306 195.16 39.4133 196.225 38.6401V23.6534H201.988ZM192.814 19.3784L192.204 18.8134C192.001 18.9856 191.762 19.1175 191.486 19.2089C191.235 19.3003 190.907 19.3461 190.575 19.3461C190.174 19.3407 189.833 19.2667 189.501 19.1242C189.17 18.9816 188.909 18.7718 188.722 18.4946C188.535 18.2174 188.441 17.8798 188.441 17.4815C188.441 17.2016 188.511 16.9246 188.65 16.6501C188.8 16.3756 188.976 16.1361 189.211 15.9317C189.107 15.7282 188.987 15.4608 188.987 15.181C188.987 14.9328 189.067 14.6442 189.199 14.4101C189.341 14.176 189.54 13.989 189.797 13.8491C190.054 13.7273 190.355 13.6393 190.68 13.6393C190.931 13.6393 191.188 13.6769 191.45 13.7523C191.712 13.8277 191.953 13.9578 192.172 14.0509L191.819 14.8904C191.627 14.7828 191.442 14.6994 191.3 14.6402C191.089 14.581 190.896 14.5514 190.688 14.5514C190.495 14.5514 190.343 14.6079 190.23 14.721C190.118 14.834 190.062 14.9738 190.062 15.1406C190.062 15.2967 190.114 15.4515 190.218 15.6383C190.323 15.7581 190.49 15.9371 190.72 16.1416L192.004 17.312C192.137 16.9838 192.215 16.5936 192.236 16.1416L193.175 16.5262C193.143 17.0537 193.02 17.5596 192.806 18.0629L193.44 18.5954L192.814 19.3784ZM189.869 16.6663C189.655 16.9138 189.592 17.1829 189.541 17.4735C189.541 17.7802 189.639 18.0116 189.837 18.1676C190.035 18.3237 190.281 18.4017 190.575 18.4017C190.912 18.4017 191.207 18.3458 191.458 18.1272L189.869 16.6663ZM179.668 15.5846V19.2574H178.633V13.7684H179.668L182.195 17.4331V13.7684H183.238V19.2574H182.195L179.668 15.5846ZM172.328 42.9668C170.525 44.8703 168.633 45.8214 166.653 45.8214C164.082 45.8214 162.146 45.1899 160.846 43.9259C159.545 42.6624 158.895 40.9601 158.895 38.8187C158.895 36.6182 159.634 34.916 161.112 33.712C162.589 32.5079 164.57 31.9054 167.053 31.9054H171.264C171.235 30.832 170.917 29.9504 170.311 29.3405C169.705 28.7312 168.87 28.4437 167.806 28.4437C166.831 28.4437 165.752 28.5679 164.57 28.8501C163.387 29.1758 162.388 29.4669 161.555 29.8535L160.003 25.0365C160.805 24.5513 161.998 24.0773 163.683 23.676C165.368 23.2747 166.713 23.0735 167.718 23.0735C169.476 23.0735 170.999 23.4158 172.417 24.1331C173.836 24.7836 174.971 25.7354 175.809 26.9541C176.651 28.1734 177.072 29.5412 177.072 31.0575V45.2863H173.35L172.328 42.9668ZM171.309 35.8103H166.964C166.018 35.8103 165.257 36.0831 164.68 36.6777C164.117 37.2728 163.816 37.9865 163.816 38.8187C163.816 39.4728 164.075 40.0379 164.592 40.5135C165.109 40.9896 165.767 41.2272 166.565 41.2272C168.279 41.2272 169.891 40.5135 171.309 39.113V35.8103ZM173.009 13.7684H176.266L176.426 14.5917H174.044V16.0689H175.825L176.041 16.9071H174.044V18.4421H176.659L176.828 19.2574H173.009V13.7684ZM169.414 19.2574H168.363V14.5917H166.702V13.7684H171.115L171.284 14.5917H169.414V19.2574ZM164.047 17.9658H161.977L161.495 19.2574H160.452L162.578 13.7684H163.495L165.579 19.1928L164.566 19.3712L164.047 17.9658ZM162.996 15.2052L162.281 17.1387H163.726L162.996 15.2052ZM158.222 19.2574L157.066 17.2172H156.087V19.2574H155.052V13.7684H156.761C157.393 13.7684 157.91 13.9124 158.314 14.2003C158.718 14.4882 158.92 14.9066 158.92 15.4555C158.92 15.7837 158.867 16.0716 158.667 16.3192C158.498 16.5667 158.272 16.7605 157.989 16.9071L159.329 19.2574H158.222ZM156.729 14.6401H156.087V16.3191H156.745C157.072 16.3191 157.332 16.2795 157.528 16.1214C157.723 15.9896 157.82 15.7837 157.82 15.5038C157.82 14.9281 157.457 14.6401 156.729 14.6401ZM149.008 31.9944C149.008 30.6567 148.734 29.6281 148.229 28.8723C147.641 28.1292 146.88 27.7573 145.905 27.7573C144.9 27.7573 143.954 27.988 143.067 28.4488C142.181 28.9096 141.205 29.5264 140.142 30.2996V45.2863H134.422V14.2869L140.142 13.796V25.304C141.353 24.5604 142.609 23.9804 143.91 23.5644C145.21 23.1483 146.378 22.9398 147.412 22.9398C150.131 22.9398 152.038 23.7129 153.158 25.2592C154.225 26.8465 154.772 28.9618 154.772 31.7464V45.2863H149.008V31.9944ZM149.428 13.7684H152.686L152.846 14.5917H150.463V16.0689H152.244L152.413 16.9071H150.463V18.4421H153.091L153.247 19.2574H149.428V13.7684ZM147.061 18.8255C146.714 19.1134 146.246 19.2574 145.671 19.2574H143.419V13.7684H145.537C146.098 13.7684 146.537 13.8922 146.853 14.1398C147.168 14.3872 147.354 14.7747 147.354 15.3021C147.354 15.6465 147.131 15.9721 146.74 16.2788C147.302 16.5747 147.583 17.0295 147.583 17.6429C147.583 18.1434 147.409 18.5376 147.061 18.8255ZM146.014 14.8305C145.887 14.6913 145.662 14.6401 145.384 14.6401H144.454V16.0043H145.224C145.529 16.0043 145.772 15.9465 145.954 15.8309C146.136 15.7151 146.227 15.5443 146.227 15.3182C146.227 15.0707 146.156 14.8958 146.014 14.8305ZM146.271 17.0618C146.118 16.9219 145.911 16.8519 145.649 16.8519H144.454V18.3936H145.577C145.86 18.3936 146.085 18.3291 146.283 18.216C146.417 18.0708 146.5 17.8878 146.5 17.6509C146.5 17.3981 146.423 17.2018 146.271 17.0618ZM123.516 31.9944C123.516 30.6567 123.242 29.6281 122.734 28.8723C122.149 28.1292 121.387 27.7573 120.413 27.7573C119.407 27.7573 118.461 27.988 117.575 28.4488C116.688 28.9096 115.712 29.5264 114.649 30.2996V45.2863H108.885V23.6534H112.654L113.629 25.9729C114.959 25.0217 116.377 24.278 117.885 23.7429C119.393 23.2078 120.738 22.9398 121.92 22.9398C124.639 22.9398 126.545 23.7129 127.639 25.2592C128.732 26.8465 129.279 28.9618 129.279 31.7464V45.2863H123.516V31.9944ZM92.7695 39.6666C93.7783 40.4693 95.2745 40.8872 97.3141 40.8872C98.4962 40.8872 99.5599 40.7156 100.506 40.3803C101.482 40.0532 102.483 39.5771 103.565 38.9525L105.25 43.1824C104.156 44.0183 102.974 44.6696 101.703 45.1304C100.432 45.5907 98.9611 45.8214 97.1811 45.8214C93.1019 45.8214 90.0059 44.8181 87.8924 42.8109C85.779 40.8037 84.7652 38.0308 84.7652 34.492C84.7652 32.2025 85.1582 30.1953 86.0303 28.471C86.9025 26.7466 88.1511 25.4157 89.7771 24.5167C91.4026 23.5423 93.3239 23.0735 95.5404 23.0735C97.6978 23.0735 99.5474 23.5791 100.993 24.5904C102.483 25.6016 103.565 26.962 104.274 28.6716C104.984 30.3812 105.338 32.292 105.338 34.403V36.1874H90.8409C91.1361 37.7042 91.779 38.8639 92.7695 39.6666ZM99.8855 32.3068C99.5898 30.8794 99.0652 29.8093 98.3114 29.0956C97.5575 28.3819 96.5895 28.0248 95.4074 28.0248C94.2254 28.0248 93.2349 28.3893 92.4371 29.1177C91.6387 29.8461 91.1215 30.9089 90.8853 32.3068H99.8855ZM75.014 14.2869L80.7334 13.796V45.2863H75.014V14.2869ZM63.5318 14.2869L69.2512 13.796V45.2863H63.5318V14.2869ZM54.1106 44.4168C52.3814 45.3527 50.3643 45.8214 48.0588 45.8214C45.7533 45.8214 43.7362 45.3693 42.007 44.4389C40.2778 43.5172 38.9403 42.2016 37.9948 40.5041C37.0489 38.7818 36.5761 36.782 36.5761 34.492C36.5761 32.2025 37.0489 30.1953 37.9948 28.471C38.9403 26.7466 40.2778 25.4157 42.007 24.5167C43.7362 23.5423 45.7533 23.0735 48.0588 23.0735C50.3643 23.0735 52.3814 23.5349 54.1106 24.4566C55.8397 25.3783 57.1773 26.7091 58.1232 28.4041C59.0687 30.1137 59.542 32.1135 59.542 34.403C59.542 36.693 59.0687 38.7002 58.1232 40.4245C57.1773 42.1494 55.8397 43.4803 54.1106 44.4168ZM52.049 29.8093C51.0145 28.62 49.6842 28.0248 48.0588 28.0248C46.4626 28.0248 45.145 28.6347 44.0906 29.8535C43.0415 31.0728 42.5169 32.6191 42.5169 34.492C42.5169 36.3659 43.0341 37.9389 44.1097 39.1184C45.103 40.2979 46.4594 40.8872 48.0588 40.8872C49.6549 40.8872 50.9779 40.2612 52.058 39.042C53.0761 37.8227 53.6007 36.2764 53.6007 34.403C53.6007 32.5301 53.0834 30.9985 52.049 29.8093ZM27.4435 31.9944C27.4435 30.5972 27.2288 29.5417 26.8165 28.8281C26.3868 28.1144 25.6996 27.7573 24.7835 27.7573C23.9393 27.7573 23.0837 27.9659 22.3445 28.3819C21.6053 28.798 20.6598 29.4227 19.5076 30.2548V30.8347V45.2863H13.7437V31.9944C13.7437 30.5972 13.5291 29.5417 13.1009 28.8281C12.6721 28.1144 11.9999 27.7573 11.0838 27.7573C10.1969 27.7573 9.38392 27.9659 8.64524 28.3819C7.90608 28.798 6.94545 29.4374 5.76335 30.2996V45.2863H0V23.6534H3.76825L4.74351 25.9729C6.07324 25.0217 7.44798 24.278 8.86671 23.7429C10.2854 23.2078 11.5751 22.9398 12.591 22.9398C15.5169 22.9398 17.5055 23.9215 18.5323 25.9078C19.862 24.969 21.221 24.2406 22.6545 23.75C23.9998 23.1999 25.2264 22.9398 26.2907 22.9398C28.7438 22.9398 30.5097 23.6018 31.6041 24.9248C32.7077 26.2478 33.2068 28.2181 33.2068 30.8347V45.2863H27.4435V31.9944Z" fill="#F7F9FC"/>
</svg>
